<svg class="h-full" viewBox="0 0 45 45" fill="none" xmlns="http://www.w3.org/2000/svg">
<rect width="45" height="45" rx="10.9091" fill="#242038" />
<path
    fill-rule="evenodd"
    clip-rule="evenodd"
    d="M33.9875 34.4959C35.5503 34.9147 37.2155 34.6955 38.6166 33.8865L35.5664 28.6033L32.5162 23.3202L32.5156 23.3205L26.6244 13.1166C26.6165 13.1028 26.6084 13.0891 26.6003 13.0755L26.5947 13.0659C25.7857 11.6647 24.4533 10.6423 22.8905 10.2235C21.3277 9.80475 19.6625 10.024 18.2613 10.8329L21.3116 16.1161L24.3618 21.3993L24.3621 21.3991L30.2527 31.602C30.2632 31.6201 30.2739 31.6381 30.2846 31.656C31.0938 33.0559 32.4256 34.0774 33.9875 34.4959ZM25.014 34.4985C26.5768 34.9172 28.242 34.698 29.6431 33.889L26.5929 28.6059L23.5427 23.3227L23.5425 23.3228L17.6509 13.1182L17.6358 13.0923L17.622 13.0683C16.813 11.6671 15.4806 10.6447 13.9178 10.2259C12.7446 9.91157 11.4918 9.9527 10.3563 10.3366C9.11689 10.7242 8.21745 11.8812 8.21745 13.2484V28.2696C8.21636 28.3165 8.21582 28.3634 8.21582 28.4104C8.21582 30.0268 8.85855 31.5769 10.0026 32.7199C11.1467 33.8628 12.6983 34.5049 14.3163 34.5049V28.4477C14.3174 28.4143 14.3179 28.3808 14.3179 28.3471V21.291C13.8221 20.4891 13.233 19.4475 12.6318 18.2926C11.2341 15.6077 10.3006 13.3274 10.5467 13.1992C10.5761 13.1839 10.6211 13.2 10.6797 13.2449L10.6844 13.253C11.1234 13.6003 12.2966 15.481 13.5197 17.8305C13.9405 18.6389 14.3193 19.4107 14.6364 20.098L15.3891 21.4017L15.3891 21.4017L21.2792 31.6036L21.2973 31.6344L21.3097 31.6561C22.1187 33.0573 23.4512 34.0797 25.014 34.4985Z"
    fill="url(#paint0_linear_1886_1655)" />
<defs>
    <linearGradient id="paint0_linear_1886_1655" x1="8.21582" y1="22.3692" x2="38.6167" y2="22.3692" gradientUnits="userSpaceOnUse">
    <stop offset="0.197917" stop-color="#E4FF1A" />
    <stop offset="0.822917" stop-color="#21F4F0" />
    </linearGradient>
</defs>
</svg>
